<svg width="34" height="39" viewBox="0 0 34 39" fill="none" xmlns="http://www.w3.org/2000/svg">
<path d="M17 19.1728C21.7421 19.1728 25.5864 15.3286 25.5864 10.5864C25.5864 5.84427 21.7421 2 17 2C12.2578 2 8.41357 5.84427 8.41357 10.5864C8.41357 15.3286 12.2578 19.1728 17 19.1728Z" stroke="white" stroke-width="3.9043"/>
<path d="M25.5864 22.6074H26.1904C28.7885 22.6074 30.98 24.5421 31.3024 27.1202L31.973 32.485C32.2292 34.5349 30.6308 36.3456 28.5649 36.3456H5.43506C3.36919 36.3456 1.77079 34.5349 2.02703 32.485L2.69763 27.1202C3.01989 24.5421 5.2115 22.6074 7.8097 22.6074H8.41358" stroke="white" stroke-width="3.9043" stroke-linecap="round" stroke-linejoin="round"/>
</svg>
