<svg width="20" height="22" viewBox="0 0 26 30" fill="none" xmlns="http://www.w3.org/2000/svg">
<path d="M12.9999 17.1053C12.4389 17.1053 11.9736 16.64 11.9736 16.079V9.23689C11.9736 8.67583 12.4389 8.21057 12.9999 8.21057C13.561 8.21057 14.0263 8.67583 14.0263 9.23689V16.079C14.0263 16.64 13.561 17.1053 12.9999 17.1053Z" fill="#24F1D9"/>
<path d="M13 29.421C5.82947 29.421 0 23.5915 0 16.421C0 9.25049 5.82947 3.42102 13 3.42102C20.1705 3.42102 26 9.25049 26 16.421C26 16.9821 25.5347 17.4473 24.9737 17.4473C24.4126 17.4473 23.9474 16.9821 23.9474 16.421C23.9474 10.3863 19.0347 5.47365 13 5.47365C6.96526 5.47365 2.05263 10.3863 2.05263 16.421C2.05263 22.4558 6.96526 27.3684 13 27.3684C13.5611 27.3684 14.0263 27.8337 14.0263 28.3947C14.0263 28.9558 13.5611 29.421 13 29.421Z" fill="#24F1D9"/>
<path d="M17.1053 2.05263H8.89472C8.33367 2.05263 7.86841 1.58737 7.86841 1.02632C7.86841 0.465263 8.33367 0 8.89472 0H17.1053C17.6663 0 18.1316 0.465263 18.1316 1.02632C18.1316 1.58737 17.6663 2.05263 17.1053 2.05263Z" fill="#24F1D9"/>
<path d="M18.6795 28.4223C18.2005 28.4223 17.7626 28.3128 17.3658 28.0802C16.4626 27.5602 15.9426 26.5065 15.9426 25.1928V22.0318C15.9426 20.7181 16.4626 19.6644 17.3658 19.1444C18.2689 18.6244 19.4321 18.7065 20.5679 19.3497L23.3047 20.937C24.4405 21.5939 25.0974 22.5655 25.0974 23.6055C25.0974 24.6455 24.4405 25.617 23.3047 26.2739L20.5679 27.8612C19.9384 28.2307 19.2953 28.4223 18.6795 28.4223ZM18.6932 20.8412C18.5837 20.8412 18.4742 20.8686 18.3921 20.9097C18.1458 21.0465 17.9953 21.4707 17.9953 22.0181V25.1791C17.9953 25.7265 18.1458 26.1507 18.3921 26.2876C18.6384 26.4244 19.0763 26.356 19.5416 26.0823L22.2784 24.4949C22.7574 24.2212 23.0447 23.8791 23.0447 23.6055C23.0447 23.3318 22.7574 22.9897 22.2784 22.716L19.5416 21.1286C19.2268 20.937 18.9258 20.8412 18.6932 20.8412Z" fill="#24F1D9"/>
</svg>
