<svg width="21" height="21" viewBox="0 0 26 26" fill="none" xmlns="http://www.w3.org/2000/svg">
<path d="M13 26C5.82884 26 0 20.1712 0 13C0 5.82884 5.82884 0 13 0C20.1712 0 26 5.82884 26 13C26 20.1712 20.1712 26 13 26ZM13 1.81395C6.83256 1.81395 1.81395 6.83256 1.81395 13C1.81395 19.1674 6.83256 24.186 13 24.186C19.1674 24.186 24.186 19.1674 24.186 13C24.186 6.83256 19.1674 1.81395 13 1.81395Z" fill="#24F1D9"/>
<path d="M17.4861 17.7525C17.3289 17.7525 17.1716 17.7162 17.0265 17.6195L13.2777 15.3823C12.3465 14.826 11.6572 13.6046 11.6572 12.5283V7.57018C11.6572 7.07437 12.0684 6.66321 12.5642 6.66321C13.06 6.66321 13.4712 7.07437 13.4712 7.57018V12.5283C13.4712 12.9637 13.834 13.6046 14.2089 13.8223L17.9577 16.0595C18.393 16.3134 18.5261 16.8697 18.2721 17.3051C18.0907 17.5953 17.7884 17.7525 17.4861 17.7525Z" fill="#24F1D9"/>
</svg>
